<svg id="Layer_1" data-name="Layer 1" xmlns="http://www.w3.org/2000/svg" viewBox="0 0 186 56"><defs><style>.cls-1{fill:#ef4443;}.cls-2{fill:#fff;}</style></defs><title>Artboard 2 copy 2</title><rect class="cls-1" x="0.39" y="0.44" width="185.23" height="55.13" rx="5" ry="5"/><path class="cls-2" d="M21.61,16.59a11,11,0,0,1,8.19-3.29q6.65,0,9.72,4.41a9.6,9.6,0,0,1,1.82,5H35.77a7.58,7.58,0,0,0-1.36-2.89A5.48,5.48,0,0,0,30,18.05a5.43,5.43,0,0,0-4.69,2.45,12,12,0,0,0-1.72,6.93q0,4.48,1.81,6.71A5.68,5.68,0,0,0,30,36.38a5.22,5.22,0,0,0,4.37-1.92,8.4,8.4,0,0,0,1.38-3.09h5.53a12,12,0,0,1-3.66,7.08,10.64,10.64,0,0,1-7.53,2.73,11.3,11.3,0,0,1-8.94-3.69q-3.25-3.7-3.25-10.15Q17.91,20.37,21.61,16.59Z"/><path class="cls-2" d="M53.4,13.81h6.3l9.42,26.63h-6L61.32,35H51.52l-1.8,5.47H43.89ZM53,30.38h6.82L56.49,19.9Z"/><path class="cls-2" d="M72.41,13.81h5.83L88.82,32.38V13.81H94V40.44H88.44L77.6,21.55V40.44H72.41Z"/><path class="cls-2" d="M101.77,16.59A11,11,0,0,1,110,13.3q6.65,0,9.72,4.41a9.58,9.58,0,0,1,1.82,5h-5.56a7.58,7.58,0,0,0-1.36-2.89,5.49,5.49,0,0,0-4.41-1.73,5.43,5.43,0,0,0-4.69,2.45,12,12,0,0,0-1.72,6.93q0,4.48,1.81,6.71a5.68,5.68,0,0,0,4.6,2.23,5.22,5.22,0,0,0,4.37-1.92,8.4,8.4,0,0,0,1.38-3.09h5.53a12,12,0,0,1-3.66,7.08,10.64,10.64,0,0,1-7.53,2.73,11.3,11.3,0,0,1-8.94-3.69q-3.25-3.7-3.25-10.15Q98.07,20.37,101.77,16.59Z"/><path class="cls-2" d="M145.64,18.53H131.55v5.65h12.94V28.8H131.55v6.85h14.74v4.79H126.11V13.81h19.53Z"/><path class="cls-2" d="M150.63,13.81h5.56V35.65h13.3v4.79H150.63Z"/></svg>