<svg id="Layer_1" data-name="Layer 1" xmlns="http://www.w3.org/2000/svg" viewBox="0 0 78 78"><defs><style>.cls-1{fill:#1f6eb7;}.cls-2{fill:#3d3d3d;}.cls-3{fill:#f3f7f4;}</style></defs><title>Artboard 4</title><rect class="cls-1" x="1.5" y="1.5" width="75" height="75" rx="5" ry="5"/><path class="cls-2" d="M71.5,77H6.5A5.51,5.51,0,0,1,1,71.5V6.5A5.51,5.51,0,0,1,6.5,1h65A5.51,5.51,0,0,1,77,6.5v65A5.51,5.51,0,0,1,71.5,77ZM6.5,2A4.5,4.5,0,0,0,2,6.5v65A4.5,4.5,0,0,0,6.5,76h65A4.5,4.5,0,0,0,76,71.5V6.5A4.5,4.5,0,0,0,71.5,2Z"/><path class="cls-3" d="M45.7,58.3,38.84,41.69,20.91,42.92,52.07,20.38ZM39.49,40.64l5.8,14.05,5.39-32.08L24.33,41.68Z"/></svg>