<svg id="Layer_1" data-name="Layer 1" xmlns="http://www.w3.org/2000/svg" viewBox="0 0 78 78"><defs><style>.cls-1{fill:#1f6eb7;}.cls-2{fill:#3d3d3d;}.cls-3{fill:#f3f7f4;}</style></defs><title>Artboard 3</title><rect class="cls-1" x="1.5" y="1.5" width="75" height="75" rx="5" ry="5"/><path class="cls-2" d="M71.5,77H6.5A5.51,5.51,0,0,1,1,71.5V6.5A5.51,5.51,0,0,1,6.5,1h65A5.51,5.51,0,0,1,77,6.5v65A5.51,5.51,0,0,1,71.5,77ZM6.5,2A4.5,4.5,0,0,0,2,6.5v65A4.5,4.5,0,0,0,6.5,76h65A4.5,4.5,0,0,0,76,71.5V6.5A4.5,4.5,0,0,0,71.5,2Z"/><path class="cls-3" d="M39,39.54,12.45,29,39,21l.14,0L65.55,29ZM15.48,29.1,39,38.46,62.52,29.1,39,22Z"/><path class="cls-3" d="M39,48.29,12.45,37.72l14.06-4.23,12.49,5,12.5-5,14.05,4.23ZM15.48,37.85,39,47.21l23.52-9.36-11-3.3L39,39.54l-12.54-5Z"/><path class="cls-3" d="M39,57,12.45,46.47,26.5,42.24l12.5,5,12.5-5,14.05,4.23ZM15.48,46.6,39,56,62.52,46.6l-11-3.3L39,48.29l-12.54-5Z"/></svg>