<svg id="Layer_1" data-name="Layer 1" xmlns="http://www.w3.org/2000/svg" viewBox="0 0 38 38"><defs><style>.cls-1{fill:#fff;}.cls-2{fill:#3e3e3e;}</style></defs><title>Artboard 5</title><rect class="cls-1" x="1.62" y="1.62" width="34.75" height="34.75" rx="5" ry="5"/><path class="cls-2" d="M31.38,36.88H6.62a5.51,5.51,0,0,1-5.5-5.5V6.62a5.51,5.51,0,0,1,5.5-5.5H31.38a5.51,5.51,0,0,1,5.5,5.5V31.38A5.51,5.51,0,0,1,31.38,36.88ZM6.62,2.12a4.5,4.5,0,0,0-4.5,4.5V31.38a4.5,4.5,0,0,0,4.5,4.5H31.38a4.5,4.5,0,0,0,4.5-4.5V6.62a4.5,4.5,0,0,0-4.5-4.5Z"/><path class="cls-2" d="M18,11h2v2.22H18Zm0,4.39h2V27H18Z"/></svg>