<svg id="Layer_1" data-name="Layer 1" xmlns="http://www.w3.org/2000/svg" viewBox="0 0 26 26"><defs><style>.cls-1{fill:#4a5058;}</style></defs><title>Artboard 16</title><path class="cls-1" d="M3.68,15.38a4.76,4.76,0,1,0,6.74,6.74l4-4a4.77,4.77,0,0,0,.24-6.49.84.84,0,0,0-1.27,1.11h0A3.05,3.05,0,0,1,13.19,17l-4,4a3.08,3.08,0,1,1-4.36-4.36l4-4A.84.84,0,1,0,7.66,11.4l0,0-4,4Zm7.53-7.53A4.77,4.77,0,0,0,11,14.34a.84.84,0,0,0,1.27-1.11h0A3.05,3.05,0,0,1,12.4,9l4-4a3.08,3.08,0,1,1,4.36,4.36l-4,4a.84.84,0,1,0,1.17,1.2l0,0,4-4a4.76,4.76,0,1,0-6.74-6.74Z"/></svg>