<svg id="Layer_1" data-name="Layer 1" xmlns="http://www.w3.org/2000/svg" viewBox="0 0 26 26"><defs><style>.cls-1{fill:#4a5058;}</style></defs><title>Artboard 18</title><path class="cls-1" d="M23.49,7.82h-4V2.74A1.48,1.48,0,0,0,18,1.25H7.8A1.48,1.48,0,0,0,6.32,2.74V7.82h-4A1.48,1.48,0,0,0,.85,9.3V19.52A1.48,1.48,0,0,0,2.33,21h4v2.53A1.48,1.48,0,0,0,7.8,25H18a1.48,1.48,0,0,0,1.48-1.48V21h4A1.48,1.48,0,0,0,25,19.52V9.3A1.48,1.48,0,0,0,23.49,7.82Zm-15.66,0V2.76H18V7.82ZM18,14.75H7.8a1.48,1.48,0,0,0-1.48,1.48v3.26h-4V9.33H23.47V19.49h-4V16.24A1.48,1.48,0,0,0,18,14.75Zm0,1.51v7.25H7.83V16.26Z"/><path class="cls-1" d="M5.82,10.69H4.36a.75.75,0,0,0,0,1.51H5.82a.75.75,0,0,0,0-1.51Z"/></svg>