<svg id="Layer_1" data-name="Layer 1" xmlns="http://www.w3.org/2000/svg" viewBox="0 0 78 152"><defs><style>.cls-1{fill:#fff;}.cls-2{fill:#3d3d3d;}.cls-3{fill:#686868;}.cls-4{fill:#232323;}</style></defs><title>Artboard 2</title><path class="cls-1" d="M6.5,1h65a5,5,0,0,1,5,5V76a0,0,0,0,1,0,0H1.5a0,0,0,0,1,0,0V6a5,5,0,0,1,5-5Z"/><path class="cls-2" d="M77,76.5H1V6A5.51,5.51,0,0,1,6.5.5h65A5.51,5.51,0,0,1,77,6Zm-75-1H76V6a4.5,4.5,0,0,0-4.5-4.5H6.5A4.5,4.5,0,0,0,2,6Z"/><path class="cls-3" d="M6.5,1h65a5,5,0,0,1,5,5V76a0,0,0,0,1,0,0H1.5a0,0,0,0,1,0,0V6A5,5,0,0,1,6.5,1Z"/><path class="cls-1" d="M1.5,76h75a0,0,0,0,1,0,0v70a5,5,0,0,1-5,5H6.5a5,5,0,0,1-5-5V76A0,0,0,0,1,1.5,76Z"/><path class="cls-2" d="M71.5,151.5H6.5A5.51,5.51,0,0,1,1,146V75.5H77V146A5.51,5.51,0,0,1,71.5,151.5ZM2,76.5V146a4.5,4.5,0,0,0,4.5,4.5h65A4.5,4.5,0,0,0,76,146V76.5Z"/><rect class="cls-4" x="21.5" y="113" width="35" height="1"/><rect class="cls-1" x="21.5" y="38" width="35" height="1"/><rect class="cls-1" x="38.5" y="21" width="1" height="35"/></svg>