<svg id="Layer_1" data-name="Layer 1" xmlns="http://www.w3.org/2000/svg" viewBox="0 0 64 64"><defs><style>.cls-1{fill:#494f57;}</style></defs><title>Artboard 18</title><path class="cls-1" d="M59.36,18.26H49V5.11a3.84,3.84,0,0,0-3.83-3.83H18.79A3.84,3.84,0,0,0,15,5.11V18.26H4.64A3.84,3.84,0,0,0,.81,22.09V48.51a3.84,3.84,0,0,0,3.83,3.83H15v6.54a3.84,3.84,0,0,0,3.83,3.83H45.21A3.84,3.84,0,0,0,49,58.89V52.34H59.36a3.84,3.84,0,0,0,3.83-3.83V22.09A3.84,3.84,0,0,0,59.36,18.26Zm-40.5,0V5.18H45.14V18.26ZM45.21,36.18H18.79A3.84,3.84,0,0,0,15,40v8.43H4.71V22.16H59.29V48.44H49V40A3.84,3.84,0,0,0,45.21,36.18Zm-.07,3.9V58.82H18.86V40.08Z"/><path class="cls-1" d="M13.66,25.67H9.89a1.95,1.95,0,0,0,0,3.9h3.77a1.95,1.95,0,0,0,0-3.9Z"/></svg>