<svg id="Layer_1" data-name="Layer 1" xmlns="http://www.w3.org/2000/svg" viewBox="0 0 38 38"><defs><style>.cls-1{fill:#1f6eb7;}.cls-2{fill:#3e3e3e;}.cls-3{fill:#f3f7f4;}</style></defs><title>Artboard 3</title><rect class="cls-1" x="1.62" y="1.62" width="34.75" height="34.75" rx="5" ry="5"/><path class="cls-2" d="M31.38,36.88H6.62a5.51,5.51,0,0,1-5.5-5.5V6.62a5.51,5.51,0,0,1,5.5-5.5H31.38a5.51,5.51,0,0,1,5.5,5.5V31.38A5.51,5.51,0,0,1,31.38,36.88ZM6.62,2.12a4.5,4.5,0,0,0-4.5,4.5V31.38a4.5,4.5,0,0,0,4.5,4.5H31.38a4.5,4.5,0,0,0,4.5-4.5V6.62a4.5,4.5,0,0,0-4.5-4.5Z"/><path class="cls-3" d="M19,19.54,5.88,14.31,19,10.37l13.12,3.95ZM8.92,14.45l10.08,4,10.08-4L19,11.41Z"/><path class="cls-3" d="M19,23.59,5.88,18.37l7.34-2.21L19,18.46l5.78-2.3,7.34,2.21ZM8.92,18.5l10.08,4,10.08-4-4.26-1.28L19,19.54l-5.82-2.32Z"/><path class="cls-3" d="M19,27.65,5.88,22.42l7.34-2.21L19,22.52l5.78-2.3,7.34,2.21ZM8.92,22.55l10.08,4,10.08-4-4.26-1.28L19,23.59l-5.82-2.32Z"/></svg>