<?xml version="1.0" encoding="utf-8"?>
<!-- Generator: Adobe Illustrator 21.1.0, SVG Export Plug-In . SVG Version: 6.00 Build 0)  -->
<!DOCTYPE svg PUBLIC "-//W3C//DTD SVG 1.1//EN" "http://www.w3.org/Graphics/SVG/1.1/DTD/svg11.dtd">
<svg version="1.1" id="Layer_1" xmlns="http://www.w3.org/2000/svg" xmlns:xlink="http://www.w3.org/1999/xlink" x="0px" y="0px"
	 viewBox="0 0 36 32" style="enable-background:new 0 0 36 32;" xml:space="preserve">
<style type="text/css">
	.st0{fill:#ED7845;}
</style>
<title>Artboard 2 copy 3</title>
<g>
	<circle class="st0" cx="18" cy="25.1" r="1.6"/>
	<path class="st0" d="M18,22.8c0.9,0,1.6-0.7,1.6-1.6V10.8c0-0.9-0.7-1.6-1.6-1.6s-1.6,0.7-1.6,1.6v10.4
		C16.4,22.1,17.1,22.8,18,22.8z"/>
	<path class="st0" d="M34.8,26.1L20.9,2.6C20.3,1.6,19.2,1,18,1c-1.2,0-2.2,0.6-2.9,1.6L1.2,26.1c-0.6,1-0.6,2.3,0,3.3
		c0.6,1,1.7,1.6,2.9,1.6c0,0,0,0,0,0h27.8c0,0,0,0,0,0c1.2,0,2.3-0.6,2.9-1.6C35.4,28.4,35.4,27.1,34.8,26.1z M17.8,4.2
		c0,0,0.1-0.1,0.2-0.1c0,0,0.1,0,0.2,0.1l13.9,23.5c0,0,0,0.1,0,0.1c0,0-0.1,0.1-0.2,0.1H4.1c0,0-0.1-0.1-0.2-0.1c0,0,0-0.1,0-0.1
		L17.8,4.2z"/>
</g>
</svg>
