<?xml version="1.0" encoding="utf-8"?>
<!-- Generator: Adobe Illustrator 21.1.0, SVG Export Plug-In . SVG Version: 6.00 Build 0)  -->
<!DOCTYPE svg PUBLIC "-//W3C//DTD SVG 1.1//EN" "http://www.w3.org/Graphics/SVG/1.1/DTD/svg11.dtd">
<svg version="1.1" id="Layer_1" xmlns="http://www.w3.org/2000/svg" xmlns:xlink="http://www.w3.org/1999/xlink" x="0px" y="0px"
	 viewBox="0 0 22 32" style="enable-background:new 0 0 22 32;" xml:space="preserve">
<style type="text/css">
	.st0{fill:#206EB7;}
</style>
<title>Artboard 2 copy 5</title>
<path class="st0" d="M20.7,18.3v11.3c0,0.9-0.7,1.6-1.6,1.6h-5.3c-0.9,0-1.6-0.7-1.6-1.6v-7.8c0-2.7-1.1-5.2-2.9-7.1l-0.5-0.5
	l-4.6,4.6c-0.3,0.3-0.7,0.5-1.2,0.5c-0.9,0-1.6-0.7-1.6-1.6V2.4c0-0.9,0.7-1.6,1.6-1.6h15.3c0.4,0,0.8,0.2,1.1,0.5
	c0.6,0.6,0.6,1.7,0,2.3l-4.6,4.6l3,3C19.6,13.1,20.7,15.6,20.7,18.3z"/>
</svg>
