<?xml version="1.0" encoding="utf-8"?>
<!-- Generator: Adobe Illustrator 21.1.0, SVG Export Plug-In . SVG Version: 6.00 Build 0)  -->
<!DOCTYPE svg PUBLIC "-//W3C//DTD SVG 1.1//EN" "http://www.w3.org/Graphics/SVG/1.1/DTD/svg11.dtd">
<svg version="1.1" id="Layer_1" xmlns="http://www.w3.org/2000/svg" xmlns:xlink="http://www.w3.org/1999/xlink" x="0px" y="0px"
	 viewBox="0 0 30 32" style="enable-background:new 0 0 30 32;" xml:space="preserve">
<style type="text/css">
	.st0{fill:#206EB7;}
</style>
<title>Artboard 2 copy 4</title>
<path class="st0" d="M5.6,9.1h9V2.6c0-0.9,0.7-1.6,1.6-1.6c0.4,0,0.9,0.2,1.2,0.5l10.8,10.8c0.6,0.6,0.6,1.7,0,2.3L17.4,25.3
	c-0.6,0.6-1.7,0.6-2.3,0c-0.3-0.3-0.5-0.7-0.5-1.1v-6.5H9.9v11.7c0,0.9-0.7,1.6-1.6,1.6H3c-0.9,0-1.6-0.7-1.6-1.6v-16
	C1.4,11,3.3,9.1,5.6,9.1z"/>
</svg>
