<svg id="Layer_1" data-name="Layer 1" xmlns="http://www.w3.org/2000/svg" viewBox="0 0 76 92"><defs><style>.cls-1{fill:#65c080;}.cls-2{fill:#595b5c;}</style></defs><title>Artboard 8</title><path class="cls-1" d="M63.66,12.62A36.28,36.28,0,0,0,12.35,63.94L38,89.59,63.66,63.94a36.29,36.29,0,0,0,0-51.32ZM38,58.6A20.32,20.32,0,1,1,58.32,38.27,20.31,20.31,0,0,1,38,58.6Z"/><path class="cls-2" d="M38,91,11.64,64.64A37.28,37.28,0,1,1,64.36,11.91h0a37.29,37.29,0,0,1,0,52.73ZM38,3A35.28,35.28,0,0,0,13.06,63.23L38,88.18,62.95,63.23A35.28,35.28,0,0,0,38,3Zm0,56.6A21.32,21.32,0,1,1,59.32,38.27,21.34,21.34,0,0,1,38,59.6ZM38,19A19.32,19.32,0,1,0,57.32,38.27,19.34,19.34,0,0,0,38,19Z"/></svg>