<?xml version="1.0" encoding="utf-8"?>
<!-- Generator: Adobe Illustrator 21.1.0, SVG Export Plug-In . SVG Version: 6.00 Build 0)  -->
<!DOCTYPE svg PUBLIC "-//W3C//DTD SVG 1.1//EN" "http://www.w3.org/Graphics/SVG/1.1/DTD/svg11.dtd">
<svg version="1.1" id="Layer_1" xmlns="http://www.w3.org/2000/svg" xmlns:xlink="http://www.w3.org/1999/xlink" x="0px" y="0px"
	 viewBox="0 0 22 32" style="enable-background:new 0 0 22 32;" xml:space="preserve">
<style type="text/css">
	.st0{fill:#206EB7;}
</style>
<title>Artboard 2 copy 5</title>
<path class="st0" d="M1.3,18.3v11.3c0,0.9,0.7,1.6,1.6,1.6h5.3c0.9,0,1.6-0.7,1.6-1.6v-7.8c0-2.7,1.1-5.2,2.9-7.1l0.5-0.5l4.6,4.6
	c0.3,0.3,0.7,0.5,1.2,0.5c0.9,0,1.6-0.7,1.6-1.6V2.4c0-0.9-0.7-1.6-1.6-1.6H3.8C3.4,0.8,3,1,2.7,1.3C2,1.9,2,2.9,2.7,3.6l4.6,4.6
	l-3,3C2.4,13.1,1.3,15.6,1.3,18.3z"/>
</svg>
