<svg id="Layer_1" data-name="Layer 1" xmlns="http://www.w3.org/2000/svg" xmlns:xlink="http://www.w3.org/1999/xlink" viewBox="0 0 162 84"><defs><style>.cls-1,.cls-2{fill:none;}.cls-2{clip-rule:evenodd;}.cls-3{clip-path:url(#clip-path);}.cls-4{clip-path:url(#clip-path-2);}.cls-5{fill:#64bc47;}.cls-6{clip-path:url(#clip-path-3);}.cls-7{fill:#0382c5;}.cls-8{clip-path:url(#clip-path-5);}.cls-9{fill:#fff;}.cls-10{clip-path:url(#clip-path-7);}.cls-11{clip-path:url(#clip-path-9);}.cls-12{fill:#231f20;}.cls-13{clip-path:url(#clip-path-11);}.cls-14{clip-path:url(#clip-path-13);}.cls-15{clip-path:url(#clip-path-15);}.cls-16{clip-path:url(#clip-path-17);}.cls-17{clip-path:url(#clip-path-19);}.cls-18{clip-path:url(#clip-path-21);}.cls-19{clip-path:url(#clip-path-23);}.cls-20{clip-path:url(#clip-path-25);}.cls-21{clip-path:url(#clip-path-27);}.cls-22{clip-path:url(#clip-path-29);}.cls-23{clip-path:url(#clip-path-31);}.cls-24{clip-path:url(#clip-path-33);}.cls-25{clip-path:url(#clip-path-35);}.cls-26{clip-path:url(#clip-path-37);}.cls-27{clip-path:url(#clip-path-39);}.cls-28{clip-path:url(#clip-path-41);}.cls-29{clip-path:url(#clip-path-43);}.cls-30{clip-path:url(#clip-path-45);}</style><clipPath id="clip-path"><rect class="cls-1" x="1.4" y="1.03" width="42.49" height="40.97"/></clipPath><clipPath id="clip-path-2"><rect class="cls-1" x="-205" y="-120.58" width="397.3" height="222.87"/></clipPath><clipPath id="clip-path-3"><rect class="cls-1" x="1.4" y="42" width="42.49" height="40.97"/></clipPath><clipPath id="clip-path-5"><polyline class="cls-2" points="22.64 6 29.07 12.9 25.58 12.9 33.06 20.52 29.58 20.52 37.05 28.23 33.64 28.23 40.98 35.84 29.59 35.84 29.59 42 15.7 42 15.7 35.84 4.31 35.84 11.45 28.23 8.23 28.23 15.51 20.52 12.22 20.52 19.51 12.9 16.22 12.9 22.64 6"/></clipPath><clipPath id="clip-path-7"><path class="cls-2" d="M40.75,48.15H29.59V42H15.74v6.15H4.54a.78.78,0,0,0-.4,1.37l.08.06,7.42,4.77.07.05a.78.78,0,0,1-.47,1.39H7.93a.78.78,0,0,0-.45,1.39l.07.05L15,62l.19.14a.78.78,0,0,1-.51,1.33H12.18a.78.78,0,0,0-.4,1.41l7.46,4.73a.78.78,0,0,1-.43,1.46H16.15a.78.78,0,0,0-.41,1.42l6.32,4.67a.81.81,0,0,0,.54.24.78.78,0,0,0,.38-.1.82.82,0,0,0,.17-.12l6.32-4.67a.78.78,0,0,0-.4-1.41H26.44A.78.78,0,0,1,26,69.71L33.41,65a.78.78,0,0,0-.26-1.45H30.56a.78.78,0,0,1-.48-1.33l.19-.14,7.47-4.79.07-.05a.78.78,0,0,0-.45-1.39H34a.78.78,0,0,1-.47-1.39l.07-.05L41,49.61l.08-.06a.78.78,0,0,0-.38-1.4"/></clipPath><clipPath id="clip-path-9"><polygon class="cls-2" points="55.28 21.45 64.72 21.45 64.72 23.34 57.31 23.34 57.31 28.75 64.48 28.75 64.48 30.63 57.31 30.63 57.31 37.8 64.72 37.8 64.72 39.69 55.28 39.69 55.28 21.45"/></clipPath><clipPath id="clip-path-11"><path class="cls-2" d="M68.26,33.87c0,2.22,1.3,4.32,3.72,4.32s3.79-2,3.79-4.3a3.8,3.8,0,0,0-3.82-4.1,3.85,3.85,0,0,0-3.69,4.08Zm9.35,5.8H75.67V38.1a4.77,4.77,0,0,1-4,1.85c-3.34,0-5.44-2.83-5.44-6s2-6,5.46-6a4.91,4.91,0,0,1,3.89,1.94V28.32h2Z"/></clipPath><clipPath id="clip-path-13"><path class="cls-2" d="M85,30.95a1.81,1.81,0,0,0-1.55-1.16A1.38,1.38,0,0,0,82,31.05c0,1,1.3,1.42,2.63,2s2.63,1.35,2.63,3.26A3.72,3.72,0,0,1,83.43,40a4.1,4.1,0,0,1-4-2.88l1.71-.73c.48,1,1,1.81,2.32,1.81a1.73,1.73,0,0,0,1.83-1.74c0-2.54-5.12-1.67-5.12-5.24A3.24,3.24,0,0,1,83.53,28a3.43,3.43,0,0,1,3,2.1Z"/></clipPath><clipPath id="clip-path-15"><polygon class="cls-2" points="92.51 39.66 90.58 39.66 90.58 30.1 89.4 30.1 89.4 28.32 90.59 28.32 90.59 24.22 92.52 24.22 92.52 28.32 94.57 28.32 94.57 30.11 92.52 30.11 92.51 39.66"/></clipPath><clipPath id="clip-path-17"><path class="cls-2" d="M117,25.44A7.8,7.8,0,0,0,111.4,23a7.54,7.54,0,1,0,0,15.08,8,8,0,0,0,5.51-2.42v2.51a9.4,9.4,0,1,1-5.39-17.08A8.8,8.8,0,0,1,117,22.9Z"/></clipPath><clipPath id="clip-path-19"><path class="cls-2" d="M120.61,34a4,4,0,1,0,4-4A4,4,0,0,0,120.61,34Zm-1.94,0a6,6,0,1,1,6,5.94A6,6,0,0,1,118.68,34Z"/></clipPath><clipPath id="clip-path-21"><path class="cls-2" d="M134,33.87c0,2.22,1.3,4.32,3.72,4.32s3.79-2,3.79-4.3a3.8,3.8,0,0,0-3.82-4.1A3.85,3.85,0,0,0,134,33.87Zm9.35,5.8h-1.94V38.1a4.77,4.77,0,0,1-4,1.85c-3.34,0-5.44-2.83-5.44-6s2-6,5.46-6a4.91,4.91,0,0,1,3.89,1.94V28.32h1.94Z"/></clipPath><clipPath id="clip-path-23"><path class="cls-2" d="M151.18,30.95a1.81,1.81,0,0,0-1.55-1.16,1.37,1.37,0,0,0-1.4,1.26c0,1,1.3,1.42,2.63,2s2.63,1.35,2.63,3.26A3.72,3.72,0,0,1,149.65,40a4.1,4.1,0,0,1-4-2.88l1.71-.73c.48,1,1,1.81,2.32,1.81a1.73,1.73,0,0,0,1.83-1.74c0-2.54-5.12-1.67-5.12-5.24A3.24,3.24,0,0,1,149.76,28a3.43,3.43,0,0,1,3,2.1Z"/></clipPath><clipPath id="clip-path-25"><polygon class="cls-2" points="158.72 39.66 156.78 39.66 156.78 30.1 155.59 30.1 155.59 28.32 156.78 28.32 156.78 24.22 158.72 24.22 158.72 28.32 160.77 28.32 160.77 30.11 158.72 30.11 158.72 39.66"/></clipPath><clipPath id="clip-path-27"><path class="cls-2" d="M156.51,60.44a2,2,0,1,0,2-2,2,2,0,0,0-2,2Zm.3,0a1.71,1.71,0,1,1,1.71,1.71A1.71,1.71,0,0,1,156.8,60.44Z"/></clipPath><clipPath id="clip-path-29"><path class="cls-2" d="M158.66,60.55a.52.52,0,0,0,.42-.53.54.54,0,0,0-.26-.46,1,1,0,0,0-.5-.09H158v1.91h.29v-.78h.06l.52.77h.37Zm.13-.52c0,.22-.13.31-.46.31v-.6c.32,0,.47.09.47.3Z"/></clipPath><clipPath id="clip-path-31"><path class="cls-2" d="M73.1,53.27c0,2.47-.22,4.5-1.88,6.42a9,9,0,0,1-6.74,3.07,9.42,9.42,0,1,1,7.83-14.9l-1.46,1.31a7.41,7.41,0,0,0-6.26-3.43,7.56,7.56,0,0,0-7.45,7.61,7.34,7.34,0,0,0,2.13,5.12,7.66,7.66,0,0,0,5.12,2.31c3.17,0,6.5-2.31,6.5-5.7H65.52V53.27Z"/></clipPath><clipPath id="clip-path-33"><path class="cls-2" d="M76.9,52.24h0a2.92,2.92,0,0,1,2.51-1.55,3.42,3.42,0,0,1,1.74.53L80.27,53a1.9,1.9,0,0,0-1.16-.51c-2.13,0-2.22,2.73-2.22,4.2v5.67H75V51H76.9Z"/></clipPath><clipPath id="clip-path-35"><path class="cls-2" d="M90.1,55.49a3.46,3.46,0,0,0-3.34-3,3.6,3.6,0,0,0-3.41,3Zm-6.88,1.64a3.68,3.68,0,0,0,3.72,3.79,3.89,3.89,0,0,0,3.45-2.35l1.64.94a5.74,5.74,0,0,1-5.24,3.19,5.5,5.5,0,0,1-5.56-5.85c0-3.36,2-6.15,5.51-6.15s5.58,3,5.39,6.4Z"/></clipPath><clipPath id="clip-path-37"><path class="cls-2" d="M102.39,55.49a3.46,3.46,0,0,0-3.34-3,3.6,3.6,0,0,0-3.41,3ZM95.5,57.13a3.68,3.68,0,0,0,3.72,3.79,3.89,3.89,0,0,0,3.45-2.35l1.64.94a5.74,5.74,0,0,1-5.24,3.19,5.5,5.5,0,0,1-5.56-5.85c0-3.36,2-6.15,5.51-6.15s5.58,3,5.39,6.4Z"/></clipPath><clipPath id="clip-path-39"><path class="cls-2" d="M108.09,52.42h0a3.81,3.81,0,0,1,3.24-1.69c3.14,0,3.86,2.27,3.86,4.93v6.74h-1.94V56c0-1.83-.14-3.48-2.39-3.48C108.21,52.51,108,55,108,57v5.39h-1.94V51H108Z"/></clipPath><clipPath id="clip-path-41"><polygon class="cls-2" points="121.38 58.73 124.91 50.19 128.42 58.73 131.8 51.04 134 51.04 128.42 63.19 124.91 54.73 121.41 63.19 115.83 51.03 118.03 51.03 121.38 58.73"/></clipPath><clipPath id="clip-path-43"><path class="cls-2" d="M135.93,56.59c0,2.22,1.3,4.32,3.72,4.32s3.79-2,3.79-4.3a3.8,3.8,0,0,0-3.82-4.1,3.85,3.85,0,0,0-3.69,4.08Zm9.35,5.8h-1.94V60.82a4.77,4.77,0,0,1-3.91,1.88c-3.34,0-5.44-2.83-5.44-6s2-6,5.46-6a4.91,4.91,0,0,1,3.89,1.94V51h1.94Z"/></clipPath><clipPath id="clip-path-45"><polygon class="cls-2" points="146.49 51.03 148.73 51.03 152.75 59.18 156.42 51.03 158.63 51.03 150.24 68.77 148.03 68.77 151.7 61.33 146.49 51.03"/></clipPath></defs><title>Artboard 19</title><g class="cls-3"><g class="cls-4"><rect class="cls-5" x="-1.03" y="-1.39" width="47.34" height="45.81"/></g></g><g class="cls-6"><g class="cls-4"><rect class="cls-7" x="-1.03" y="39.58" width="47.34" height="45.81"/></g></g><g class="cls-8"><g class="cls-4"><rect class="cls-9" x="1.88" y="3.58" width="41.52" height="40.85"/></g></g><g class="cls-10"><g class="cls-4"><rect class="cls-5" x="1.44" y="39.58" width="42.44" height="40.29"/></g></g><g class="cls-11"><g class="cls-4"><rect class="cls-12" x="52.86" y="19.03" width="14.29" height="23.08"/></g></g><g class="cls-13"><g class="cls-4"><rect class="cls-12" x="63.85" y="25.55" width="16.18" height="16.83"/></g></g><g class="cls-14"><g class="cls-4"><rect class="cls-12" x="76.99" y="25.53" width="12.7" height="16.84"/></g></g><g class="cls-15"><g class="cls-4"><rect class="cls-12" x="86.98" y="21.8" width="10.02" height="20.29"/></g></g><g class="cls-16"><g class="cls-4"><rect class="cls-12" x="99.68" y="18.68" width="19.71" height="23.69"/></g></g><g class="cls-17"><g class="cls-4"><rect class="cls-12" x="116.25" y="25.59" width="16.79" height="16.79"/></g></g><g class="cls-18"><g class="cls-4"><rect class="cls-12" x="129.57" y="25.55" width="16.17" height="16.83"/></g></g><g class="cls-19"><g class="cls-4"><rect class="cls-12" x="143.21" y="25.53" width="12.7" height="16.84"/></g></g><g class="cls-20"><g class="cls-4"><rect class="cls-12" x="153.17" y="21.8" width="10.02" height="20.29"/></g></g><g class="cls-21"><g class="cls-4"><rect class="cls-12" x="154.08" y="55.96" width="8.94" height="8.94"/></g></g><g class="cls-22"><g class="cls-4"><rect class="cls-12" x="155.59" y="57.04" width="6.08" height="6.75"/></g></g><g class="cls-23"><g class="cls-4"><rect class="cls-12" x="52.79" y="41.49" width="22.73" height="23.69"/></g></g><g class="cls-24"><g class="cls-4"><rect class="cls-12" x="72.54" y="48.27" width="11.03" height="16.53"/></g></g><g class="cls-25"><g class="cls-4"><rect class="cls-12" x="78.78" y="48.28" width="15.77" height="16.84"/></g></g><g class="cls-26"><g class="cls-4"><rect class="cls-12" x="91.07" y="48.28" width="15.77" height="16.84"/></g></g><g class="cls-27"><g class="cls-4"><rect class="cls-12" x="103.68" y="48.3" width="13.93" height="16.51"/></g></g><g class="cls-28"><g class="cls-4"><rect class="cls-12" x="113.41" y="47.77" width="23.02" height="17.84"/></g></g><g class="cls-29"><g class="cls-4"><rect class="cls-12" x="131.57" y="48.3" width="16.13" height="16.83"/></g></g><g class="cls-30"><g class="cls-4"><rect class="cls-12" x="144.06" y="48.61" width="16.98" height="22.58"/></g></g></svg>