<svg id="Layer_1" data-name="Layer 1" xmlns="http://www.w3.org/2000/svg" viewBox="0 0 38 38"><defs><style>.cls-1{fill:#fff;}.cls-2{fill:#3e3e3e;}.cls-3{fill:#232323;}</style></defs><title>Artboard 6</title><rect class="cls-1" x="1.62" y="1.62" width="34.75" height="34.75" rx="5" ry="5"/><path class="cls-2" d="M31.38,36.88H6.62a5.51,5.51,0,0,1-5.5-5.5V6.62a5.51,5.51,0,0,1,5.5-5.5H31.38a5.51,5.51,0,0,1,5.5,5.5V31.38A5.51,5.51,0,0,1,31.38,36.88ZM6.62,2.12a4.5,4.5,0,0,0-4.5,4.5V31.38a4.5,4.5,0,0,0,4.5,4.5H31.38a4.5,4.5,0,0,0,4.5-4.5V6.62a4.5,4.5,0,0,0-4.5-4.5Z"/><path class="cls-3" d="M22.21,28.91l-3.46-8.38-9.05.62L25.43,9.77ZM19.4,19.48l2.4,5.82L24,12l-10.92,7.9Z"/></svg>