<svg id="Layer_1" data-name="Layer 1" xmlns="http://www.w3.org/2000/svg" xmlns:xlink="http://www.w3.org/1999/xlink" viewBox="0 0 64 64"><defs><style>.cls-1,.cls-2{fill:none;}.cls-2{clip-rule:evenodd;}.cls-3{fill:#494f57;}.cls-4{clip-path:url(#clip-path);}.cls-5{clip-path:url(#clip-path-2);}.cls-6{clip-path:url(#clip-path-3);}.cls-7{clip-path:url(#clip-path-4);}.cls-8{clip-path:url(#clip-path-5);}.cls-9{clip-path:url(#clip-path-6);}.cls-10{clip-path:url(#clip-path-7);}.cls-11{clip-path:url(#clip-path-8);}.cls-12{clip-path:url(#clip-path-9);}.cls-13{clip-path:url(#clip-path-10);}.cls-14{clip-path:url(#clip-path-11);}.cls-15{clip-path:url(#clip-path-12);}.cls-16{clip-path:url(#clip-path-13);}.cls-17{clip-path:url(#clip-path-14);}.cls-18{clip-path:url(#clip-path-15);}.cls-19{clip-path:url(#clip-path-16);}.cls-20{clip-path:url(#clip-path-17);}.cls-21{clip-path:url(#clip-path-18);}.cls-22{clip-path:url(#clip-path-19);}.cls-23{clip-path:url(#clip-path-20);}.cls-24{clip-path:url(#clip-path-21);}.cls-25{clip-path:url(#clip-path-22);}.cls-26{clip-path:url(#clip-path-23);}</style><clipPath id="clip-path"><rect class="cls-1" x="120.55" y="40.43" width="42.49" height="40.97"/></clipPath><clipPath id="clip-path-2"><rect class="cls-1" x="120.55" y="81.4" width="42.49" height="40.97"/></clipPath><clipPath id="clip-path-3"><polyline class="cls-2" points="141.79 45.4 148.21 52.3 144.73 52.3 152.21 59.92 148.73 59.92 156.2 67.62 152.79 67.62 160.13 75.24 148.74 75.24 148.74 81.4 134.85 81.4 134.85 75.24 123.45 75.24 130.59 67.62 127.38 67.62 134.66 59.92 131.37 59.92 138.66 52.3 135.37 52.3 141.79 45.4"/></clipPath><clipPath id="clip-path-4"><path class="cls-2" d="M159.9,87.54H148.74V81.4H134.89v6.15h-11.2a.78.78,0,0,0-.4,1.37l.08.06,7.42,4.77.07.05a.78.78,0,0,1-.47,1.39h-3.31a.78.78,0,0,0-.45,1.39l.07.05,7.48,4.79.19.14a.78.78,0,0,1-.51,1.33h-2.53a.78.78,0,0,0-.4,1.41l7.46,4.73a.78.78,0,0,1-.43,1.46H135.3a.78.78,0,0,0-.41,1.42l6.32,4.67a.81.81,0,0,0,.54.24.78.78,0,0,0,.38-.1.82.82,0,0,0,.17-.12l6.32-4.67a.78.78,0,0,0-.4-1.41h-2.63a.78.78,0,0,1-.46-1.42l7.43-4.75a.78.78,0,0,0-.26-1.45h-2.59a.78.78,0,0,1-.48-1.33l.19-.14,7.47-4.79.07-.05a.78.78,0,0,0-.45-1.39h-3.32a.78.78,0,0,1-.47-1.39l.07-.05L160.2,89l.08-.06a.78.78,0,0,0-.38-1.4"/></clipPath><clipPath id="clip-path-5"><polygon class="cls-2" points="174.43 60.85 183.87 60.85 183.87 62.74 176.46 62.74 176.46 68.15 183.63 68.15 183.63 70.03 176.46 70.03 176.46 77.2 183.87 77.2 183.87 79.08 174.43 79.08 174.43 60.85"/></clipPath><clipPath id="clip-path-6"><path class="cls-2" d="M187.41,73.27c0,2.22,1.3,4.32,3.72,4.32s3.79-2,3.79-4.3a3.8,3.8,0,0,0-3.82-4.1,3.85,3.85,0,0,0-3.69,4.08Zm9.35,5.8h-1.94V77.5a4.77,4.77,0,0,1-4,1.85c-3.34,0-5.44-2.83-5.44-6s2-6,5.46-6a4.91,4.91,0,0,1,3.89,1.94V67.72h2Z"/></clipPath><clipPath id="clip-path-7"><path class="cls-2" d="M204.1,70.35a1.81,1.81,0,0,0-1.55-1.16,1.38,1.38,0,0,0-1.4,1.26c0,1,1.3,1.42,2.63,2s2.63,1.35,2.63,3.26a3.72,3.72,0,0,1-3.84,3.67,4.1,4.1,0,0,1-4-2.88l1.71-.73c.48,1,1,1.81,2.32,1.81a1.73,1.73,0,0,0,1.83-1.74c0-2.54-5.12-1.67-5.12-5.24a3.24,3.24,0,0,1,3.38-3.22,3.43,3.43,0,0,1,3,2.1Z"/></clipPath><clipPath id="clip-path-8"><polygon class="cls-2" points="211.66 79.06 209.73 79.06 209.73 69.5 208.55 69.5 208.55 67.72 209.74 67.72 209.74 63.62 211.67 63.62 211.67 67.72 213.72 67.72 213.72 69.51 211.67 69.51 211.66 79.06"/></clipPath><clipPath id="clip-path-9"><path class="cls-2" d="M236.11,64.84a7.8,7.8,0,0,0-5.56-2.42,7.54,7.54,0,1,0,0,15.08,8,8,0,0,0,5.51-2.42v2.51a9.4,9.4,0,1,1-5.39-17.08,8.8,8.8,0,0,1,5.44,1.79Z"/></clipPath><clipPath id="clip-path-10"><path class="cls-2" d="M239.76,73.41a4,4,0,1,0,4-4A4,4,0,0,0,239.76,73.41Zm-1.94,0a6,6,0,1,1,6,5.94A6,6,0,0,1,237.82,73.41Z"/></clipPath><clipPath id="clip-path-11"><path class="cls-2" d="M253.12,73.27c0,2.22,1.3,4.32,3.72,4.32s3.79-2,3.79-4.3a3.8,3.8,0,0,0-3.82-4.1,3.85,3.85,0,0,0-3.69,4.08Zm9.35,5.8h-1.94V77.5a4.77,4.77,0,0,1-4,1.85c-3.34,0-5.44-2.83-5.44-6s2-6,5.46-6a4.91,4.91,0,0,1,3.89,1.94V67.72h1.94Z"/></clipPath><clipPath id="clip-path-12"><path class="cls-2" d="M270.33,70.35a1.81,1.81,0,0,0-1.55-1.16,1.37,1.37,0,0,0-1.4,1.26c0,1,1.3,1.42,2.63,2s2.63,1.35,2.63,3.26a3.72,3.72,0,0,1-3.84,3.67,4.1,4.1,0,0,1-4-2.88l1.71-.73c.48,1,1,1.81,2.32,1.81a1.73,1.73,0,0,0,1.83-1.74c0-2.54-5.12-1.67-5.12-5.24a3.24,3.24,0,0,1,3.38-3.22,3.43,3.43,0,0,1,3,2.1Z"/></clipPath><clipPath id="clip-path-13"><polygon class="cls-2" points="277.87 79.06 275.93 79.06 275.93 69.5 274.74 69.5 274.74 67.72 275.93 67.72 275.93 63.62 277.87 63.62 277.87 67.72 279.92 67.72 279.92 69.51 277.87 69.51 277.87 79.06"/></clipPath><clipPath id="clip-path-14"><path class="cls-2" d="M275.65,99.84a2,2,0,1,0,2-2,2,2,0,0,0-2,2Zm.3,0a1.71,1.71,0,1,1,1.71,1.71A1.71,1.71,0,0,1,276,99.84Z"/></clipPath><clipPath id="clip-path-15"><path class="cls-2" d="M277.81,99.95a.52.52,0,0,0,.42-.53A.54.54,0,0,0,278,99a1,1,0,0,0-.5-.09h-.31v1.91h.29V100h.06l.52.77h.37Zm.13-.52c0,.22-.13.31-.46.31v-.6c.32,0,.47.09.47.3Z"/></clipPath><clipPath id="clip-path-16"><path class="cls-2" d="M192.25,92.67c0,2.47-.22,4.5-1.88,6.42a9,9,0,0,1-6.74,3.07,9.42,9.42,0,1,1,7.83-14.9L190,88.57a7.41,7.41,0,0,0-6.26-3.43,7.56,7.56,0,0,0-7.45,7.61,7.34,7.34,0,0,0,2.13,5.12,7.66,7.66,0,0,0,5.12,2.31c3.17,0,6.5-2.31,6.5-5.7h-5.37V92.67Z"/></clipPath><clipPath id="clip-path-17"><path class="cls-2" d="M196.05,91.64h0a2.92,2.92,0,0,1,2.51-1.55,3.42,3.42,0,0,1,1.74.53l-.88,1.79a1.9,1.9,0,0,0-1.16-.51c-2.13,0-2.22,2.73-2.22,4.2v5.67h-1.93V90.43h1.94Z"/></clipPath><clipPath id="clip-path-18"><path class="cls-2" d="M209.25,94.89a3.46,3.46,0,0,0-3.34-3,3.6,3.6,0,0,0-3.41,3Zm-6.88,1.64a3.68,3.68,0,0,0,3.72,3.79A3.89,3.89,0,0,0,209.53,98l1.64.94a5.74,5.74,0,0,1-5.24,3.19,5.5,5.5,0,0,1-5.56-5.85c0-3.36,2-6.15,5.51-6.15s5.58,3,5.39,6.4Z"/></clipPath><clipPath id="clip-path-19"><path class="cls-2" d="M221.54,94.89a3.46,3.46,0,0,0-3.34-3,3.6,3.6,0,0,0-3.41,3Zm-6.88,1.64a3.68,3.68,0,0,0,3.72,3.79A3.89,3.89,0,0,0,221.82,98l1.64.94a5.74,5.74,0,0,1-5.24,3.19,5.5,5.5,0,0,1-5.56-5.85c0-3.36,2-6.15,5.51-6.15s5.58,3,5.39,6.4Z"/></clipPath><clipPath id="clip-path-20"><path class="cls-2" d="M227.24,91.82h0a3.81,3.81,0,0,1,3.24-1.69c3.14,0,3.86,2.27,3.86,4.93v6.74h-1.94v-6.4c0-1.83-.14-3.48-2.39-3.48-2.66,0-2.83,2.47-2.83,4.5v5.39h-1.94V90.43h1.94Z"/></clipPath><clipPath id="clip-path-21"><polygon class="cls-2" points="240.53 98.13 244.06 89.59 247.57 98.13 250.95 90.44 253.15 90.44 247.57 102.59 244.06 94.13 240.56 102.59 234.98 90.43 237.18 90.43 240.53 98.13"/></clipPath><clipPath id="clip-path-22"><path class="cls-2" d="M255.08,96c0,2.22,1.3,4.32,3.72,4.32s3.79-2,3.79-4.3a3.8,3.8,0,0,0-3.82-4.1A3.85,3.85,0,0,0,255.08,96Zm9.35,5.8h-1.94v-1.57a4.77,4.77,0,0,1-3.91,1.88c-3.34,0-5.44-2.83-5.44-6s2-6,5.46-6a4.91,4.91,0,0,1,3.89,1.94V90.43h1.94Z"/></clipPath><clipPath id="clip-path-23"><polygon class="cls-2" points="265.64 90.43 267.88 90.43 271.89 98.58 275.57 90.43 277.77 90.43 269.38 108.17 267.18 108.17 270.85 100.73 265.64 90.43"/></clipPath></defs><title>Artboard 16</title><path class="cls-3" d="M60.3,56.81H3.7a1.89,1.89,0,1,0,0,3.77H60.3a1.89,1.89,0,0,0,0-3.77Z"/><path class="cls-3" d="M30.21,49.36a1.83,1.83,0,0,0,2.45,0L55.77,29.55a1.87,1.87,0,0,0-2.45-2.83l-20,17.07V5.31a1.89,1.89,0,1,0-3.77,0V43.89l-20-17.17A1.87,1.87,0,0,0,7.1,29.55Z"/></svg>