<svg id="Layer_1" data-name="Layer 1" xmlns="http://www.w3.org/2000/svg" viewBox="0 0 64 64"><defs><style>.cls-1{fill:#4a5058;}</style></defs><title>Artboard 17</title><path class="cls-1" d="M6.2,38.71a13.44,13.44,0,1,0,19,19L36.4,46.54a13.46,13.46,0,0,0,.66-18.31,2.38,2.38,0,0,0-3.59,3.12h0A8.62,8.62,0,0,1,33,43.18L21.86,54.37a8.7,8.7,0,1,1-12.3-12.3L20.74,30.88a2.37,2.37,0,1,0-3.31-3.4l0,0L6.2,38.71ZM27.45,17.46a13.46,13.46,0,0,0-.66,18.31,2.38,2.38,0,0,0,3.58-3.13h0a8.62,8.62,0,0,1,.44-11.83L42,9.63a8.7,8.7,0,1,1,12.3,12.3L43.11,33.12a2.37,2.37,0,1,0,3.31,3.4l0,0L57.65,25.29a13.44,13.44,0,1,0-19-19Z"/></svg>