<svg id="Layer_1" data-name="Layer 1" xmlns="http://www.w3.org/2000/svg" xmlns:xlink="http://www.w3.org/1999/xlink" viewBox="0 0 128 140"><defs><style>.cls-1,.cls-2{fill:none;}.cls-2{clip-rule:evenodd;}.cls-3{fill:#206eb7;}.cls-4{clip-path:url(#clip-path);}.cls-5{clip-path:url(#clip-path-2);}.cls-6{clip-path:url(#clip-path-3);}.cls-7{clip-path:url(#clip-path-4);}.cls-8{clip-path:url(#clip-path-5);}.cls-9{clip-path:url(#clip-path-6);}.cls-10{clip-path:url(#clip-path-7);}.cls-11{clip-path:url(#clip-path-8);}.cls-12{clip-path:url(#clip-path-9);}.cls-13{clip-path:url(#clip-path-10);}.cls-14{clip-path:url(#clip-path-11);}.cls-15{clip-path:url(#clip-path-12);}.cls-16{clip-path:url(#clip-path-13);}.cls-17{clip-path:url(#clip-path-14);}.cls-18{clip-path:url(#clip-path-15);}.cls-19{clip-path:url(#clip-path-16);}.cls-20{clip-path:url(#clip-path-17);}.cls-21{clip-path:url(#clip-path-18);}.cls-22{clip-path:url(#clip-path-19);}.cls-23{clip-path:url(#clip-path-20);}.cls-24{clip-path:url(#clip-path-21);}.cls-25{clip-path:url(#clip-path-22);}.cls-26{clip-path:url(#clip-path-23);}</style><clipPath id="clip-path"><rect class="cls-1" x="19.05" y="242.04" width="42.49" height="40.97"/></clipPath><clipPath id="clip-path-2"><rect class="cls-1" x="19.05" y="283.01" width="42.49" height="40.97"/></clipPath><clipPath id="clip-path-3"><polyline class="cls-2" points="40.3 247.01 46.72 253.91 43.23 253.91 50.71 261.53 47.23 261.53 54.71 269.23 51.3 269.23 58.63 276.85 47.24 276.85 47.24 283.01 33.35 283.01 33.35 276.85 21.96 276.85 29.1 269.23 25.88 269.23 33.16 261.53 29.88 261.53 37.16 253.91 33.87 253.91 40.3 247.01"/></clipPath><clipPath id="clip-path-4"><path class="cls-2" d="M58.41,289.15H47.24V283H33.39v6.15H22.19a.78.78,0,0,0-.4,1.37l.08.06,7.42,4.77.07.05a.78.78,0,0,1-.47,1.39H25.59a.78.78,0,0,0-.45,1.39l.07.05L32.68,303l.19.14a.78.78,0,0,1-.51,1.33H29.84a.78.78,0,0,0-.4,1.41l7.46,4.73a.78.78,0,0,1-.43,1.46H33.8a.78.78,0,0,0-.41,1.42l6.32,4.67a.81.81,0,0,0,.54.24.78.78,0,0,0,.38-.1.82.82,0,0,0,.17-.12l6.32-4.67a.78.78,0,0,0-.4-1.41H44.1a.78.78,0,0,1-.46-1.42L51.06,306a.78.78,0,0,0-.26-1.45H48.21a.78.78,0,0,1-.48-1.33l.19-.14,7.47-4.79.07-.05A.78.78,0,0,0,55,296.8H51.7a.78.78,0,0,1-.47-1.39l.07-.05,7.41-4.74.08-.06a.78.78,0,0,0-.38-1.4"/></clipPath><clipPath id="clip-path-5"><polygon class="cls-2" points="72.93 262.46 82.38 262.46 82.38 264.35 74.96 264.35 74.96 269.75 82.13 269.75 82.13 271.64 74.96 271.64 74.96 278.81 82.38 278.81 82.38 280.69 72.93 280.69 72.93 262.46"/></clipPath><clipPath id="clip-path-6"><path class="cls-2" d="M85.91,274.88c0,2.22,1.3,4.32,3.72,4.32s3.79-2,3.79-4.3a3.8,3.8,0,0,0-3.82-4.1,3.85,3.85,0,0,0-3.69,4.08Zm9.35,5.8H93.33V279.1a4.77,4.77,0,0,1-4,1.85c-3.34,0-5.44-2.83-5.44-6s2-6,5.46-6a4.91,4.91,0,0,1,3.89,1.94v-1.59h2Z"/></clipPath><clipPath id="clip-path-7"><path class="cls-2" d="M102.61,272a1.81,1.81,0,0,0-1.55-1.16,1.38,1.38,0,0,0-1.4,1.26c0,1,1.3,1.42,2.63,2s2.63,1.35,2.63,3.26a3.72,3.72,0,0,1-3.84,3.67,4.1,4.1,0,0,1-4-2.88l1.71-.73c.48,1,1,1.81,2.32,1.81a1.73,1.73,0,0,0,1.83-1.74c0-2.54-5.12-1.67-5.12-5.24a3.24,3.24,0,0,1,3.38-3.22,3.43,3.43,0,0,1,3,2.1Z"/></clipPath><clipPath id="clip-path-8"><polygon class="cls-2" points="110.17 280.67 108.23 280.67 108.23 271.11 107.05 271.11 107.05 269.32 108.24 269.32 108.24 265.23 110.18 265.23 110.18 269.32 112.23 269.32 112.23 271.12 110.18 271.12 110.17 280.67"/></clipPath><clipPath id="clip-path-9"><path class="cls-2" d="M134.62,266.45a7.8,7.8,0,0,0-5.56-2.42,7.54,7.54,0,1,0,0,15.08,8,8,0,0,0,5.51-2.42v2.51a9.4,9.4,0,1,1-5.39-17.08,8.8,8.8,0,0,1,5.44,1.79Z"/></clipPath><clipPath id="clip-path-10"><path class="cls-2" d="M138.26,275a4,4,0,1,0,4-4A4,4,0,0,0,138.26,275Zm-1.94,0a6,6,0,1,1,6,5.94A6,6,0,0,1,136.33,275Z"/></clipPath><clipPath id="clip-path-11"><path class="cls-2" d="M151.62,274.88c0,2.22,1.3,4.32,3.72,4.32s3.79-2,3.79-4.3a3.8,3.8,0,0,0-3.82-4.1,3.85,3.85,0,0,0-3.69,4.08Zm9.35,5.8H159V279.1a4.77,4.77,0,0,1-4,1.85c-3.34,0-5.44-2.83-5.44-6s2-6,5.46-6a4.91,4.91,0,0,1,3.89,1.94v-1.59h1.94Z"/></clipPath><clipPath id="clip-path-12"><path class="cls-2" d="M168.83,272a1.81,1.81,0,0,0-1.55-1.16,1.37,1.37,0,0,0-1.4,1.26c0,1,1.3,1.42,2.63,2s2.63,1.35,2.63,3.26a3.72,3.72,0,0,1-3.84,3.67,4.1,4.1,0,0,1-4-2.88l1.71-.73c.48,1,1,1.81,2.32,1.81a1.73,1.73,0,0,0,1.83-1.74c0-2.54-5.12-1.67-5.12-5.24a3.24,3.24,0,0,1,3.38-3.22,3.43,3.43,0,0,1,3,2.1Z"/></clipPath><clipPath id="clip-path-13"><polygon class="cls-2" points="176.37 280.67 174.44 280.67 174.44 271.11 173.25 271.11 173.25 269.32 174.44 269.32 174.44 265.23 176.37 265.23 176.37 269.32 178.42 269.32 178.42 271.12 176.37 271.12 176.37 280.67"/></clipPath><clipPath id="clip-path-14"><path class="cls-2" d="M174.16,301.44a2,2,0,1,0,2-2,2,2,0,0,0-2,2Zm.3,0a1.71,1.71,0,1,1,1.71,1.71A1.71,1.71,0,0,1,174.46,301.44Z"/></clipPath><clipPath id="clip-path-15"><path class="cls-2" d="M176.31,301.56a.52.52,0,0,0,.42-.53.54.54,0,0,0-.26-.46,1,1,0,0,0-.5-.09h-.31v1.91H176v-.78H176l.52.77h.37Zm.13-.52c0,.22-.13.31-.46.31v-.6c.32,0,.47.09.47.3Z"/></clipPath><clipPath id="clip-path-16"><path class="cls-2" d="M90.75,294.27c0,2.47-.22,4.5-1.88,6.42a9,9,0,0,1-6.74,3.07A9.42,9.42,0,1,1,90,288.87l-1.46,1.31a7.41,7.41,0,0,0-6.26-3.43,7.56,7.56,0,0,0-7.45,7.61,7.34,7.34,0,0,0,2.13,5.12A7.66,7.66,0,0,0,82,301.79c3.17,0,6.5-2.31,6.5-5.7H83.17v-1.81Z"/></clipPath><clipPath id="clip-path-17"><path class="cls-2" d="M94.56,293.25h0a2.92,2.92,0,0,1,2.51-1.55,3.42,3.42,0,0,1,1.74.53L97.93,294a1.9,1.9,0,0,0-1.16-.51c-2.13,0-2.22,2.73-2.22,4.2v5.67H92.62V292h1.94Z"/></clipPath><clipPath id="clip-path-18"><path class="cls-2" d="M107.75,296.5a3.46,3.46,0,0,0-3.34-3,3.6,3.6,0,0,0-3.41,3Zm-6.88,1.64a3.68,3.68,0,0,0,3.72,3.79,3.89,3.89,0,0,0,3.45-2.35l1.64.94a5.74,5.74,0,0,1-5.24,3.19,5.5,5.5,0,0,1-5.56-5.85c0-3.36,2-6.15,5.51-6.15s5.58,3,5.39,6.4Z"/></clipPath><clipPath id="clip-path-19"><path class="cls-2" d="M120,296.5a3.46,3.46,0,0,0-3.34-3,3.6,3.6,0,0,0-3.41,3Zm-6.88,1.64a3.68,3.68,0,0,0,3.72,3.79,3.89,3.89,0,0,0,3.45-2.35l1.64.94a5.74,5.74,0,0,1-5.24,3.19,5.5,5.5,0,0,1-5.56-5.85c0-3.36,2-6.15,5.51-6.15s5.58,3,5.39,6.4Z"/></clipPath><clipPath id="clip-path-20"><path class="cls-2" d="M125.75,293.42h0a3.81,3.81,0,0,1,3.24-1.69c3.14,0,3.86,2.27,3.86,4.93v6.74h-1.94V297c0-1.83-.14-3.48-2.39-3.48-2.66,0-2.83,2.47-2.83,4.5v5.39h-1.94V292h1.94Z"/></clipPath><clipPath id="clip-path-21"><polygon class="cls-2" points="139.03 299.73 142.57 291.2 146.07 299.73 149.45 292.05 151.65 292.05 146.07 304.2 142.57 295.74 139.06 304.2 133.48 292.04 135.68 292.04 139.03 299.73"/></clipPath><clipPath id="clip-path-22"><path class="cls-2" d="M153.58,297.6c0,2.22,1.3,4.32,3.72,4.32s3.79-2,3.79-4.3a3.8,3.8,0,0,0-3.82-4.1,3.85,3.85,0,0,0-3.69,4.08Zm9.35,5.8H161v-1.57a4.77,4.77,0,0,1-3.91,1.88c-3.34,0-5.44-2.83-5.44-6s2-6,5.46-6a4.91,4.91,0,0,1,3.89,1.94V292h1.94Z"/></clipPath><clipPath id="clip-path-23"><polygon class="cls-2" points="164.14 292.04 166.38 292.04 170.4 300.18 174.08 292.04 176.28 292.04 167.89 309.78 165.69 309.78 169.35 302.33 164.14 292.04"/></clipPath></defs><title>Artboard 2 copy 4</title><path class="cls-3" d="M20.86,38.29H62.25v-30A7.45,7.45,0,0,1,75,3l49.75,49.75a7.45,7.45,0,0,1,0,10.53L75,113.06a7.45,7.45,0,0,1-12.72-5.27v-30H40.61v53.93a7.45,7.45,0,0,1-7.45,7.45H8.55a7.45,7.45,0,0,1-7.45-7.45V58A19.75,19.75,0,0,1,20.86,38.29Z"/></svg>