<svg id="Layer_1" data-name="Layer 1" xmlns="http://www.w3.org/2000/svg" viewBox="0 0 76 92"><defs><style>.cls-1{fill:#ef4444;}.cls-2{fill:#595b5c;}</style></defs><title>Artboard 7</title><path class="cls-1" d="M63.66,12.62A36.28,36.28,0,0,0,12.35,63.93L38,89.59,63.66,63.93a36.3,36.3,0,0,0,0-51.31ZM63,63.23,38,88.17,13.06,63.23a35.28,35.28,0,1,1,49.89,0Z"/><path class="cls-2" d="M38,17A21.32,21.32,0,1,0,59.32,38.27,21.33,21.33,0,0,0,38,17Zm0,40.63A19.32,19.32,0,1,1,57.32,38.27,19.33,19.33,0,0,1,38,57.59Z"/><path class="cls-2" d="M72.46,24A37.29,37.29,0,1,0,11.64,64.64L38,91,64.36,64.64A37.39,37.39,0,0,0,72.46,24ZM38,88.17,13.06,63.23a35.28,35.28,0,1,1,49.89,0Z"/><path class="cls-1" d="M63,13.32A35.28,35.28,0,0,0,13.06,63.23L38,88.17,63,63.23a35.31,35.31,0,0,0,0-49.91ZM38,59.59A21.32,21.32,0,1,1,59.32,38.27,21.34,21.34,0,0,1,38,59.59Z"/></svg>